#N canvas 85 23 1366 719 10;
#X obj 29 273 s a;
#N canvas 771 108 456 484 sub_a 0;
#X obj 79 76 r b;
#X obj 128 82 r c;
#X obj 164 84 r d;
#X obj 93 134 +;
#X obj 106 110 t f b;
#X obj 138 179 +;
#X obj 151 155 t f b;
#X obj 141 205 / 3;
#X obj 132 270 t f b;
#X obj 229 206 r x;
#X obj 132 238 spigot;
#X obj 211 178 inlet;
#X obj 139 359 spigot;
#X obj 130 295 metro;
#X obj 146 399 outlet;
#X obj 295 190 inlet;
#X connect 0 0 3 0;
#X connect 1 0 4 0;
#X connect 2 0 6 0;
#X connect 3 0 5 0;
#X connect 4 0 3 1;
#X connect 4 1 3 0;
#X connect 5 0 7 0;
#X connect 6 0 5 1;
#X connect 6 1 5 0;
#X connect 7 0 10 0;
#X connect 8 0 13 1;
#X connect 8 1 13 0;
#X connect 9 0 8 0;
#X connect 10 0 8 0;
#X connect 11 0 10 1;
#X connect 12 0 14 0;
#X connect 13 0 12 0;
#X connect 15 0 12 1;
#X restore 29 125 pd sub_a;
#X obj 597 101 nbx 5 14 0 1 0 0 empty empty empty 0 -8 0 10 -262144
-1 -1 1 256;
#N canvas 43 26 450 358 sub_b 0;
#X obj 128 82 r c;
#X obj 164 84 r d;
#X obj 93 134 +;
#X obj 106 110 t f b;
#X obj 138 179 +;
#X obj 151 155 t f b;
#X obj 137 202 / 3;
#X obj 137 244 t f b;
#X obj 79 76 r a;
#X obj 209 186 r x;
#X obj 193 228 spigot;
#X obj 260 197 inlet;
#X obj 149 289 spigot;
#X obj 156 329 outlet;
#X obj 312 263 inlet;
#X obj 142 265 metro;
#X connect 0 0 3 0;
#X connect 1 0 5 0;
#X connect 2 0 4 0;
#X connect 3 0 2 1;
#X connect 3 1 2 0;
#X connect 4 0 6 0;
#X connect 5 0 4 1;
#X connect 5 1 4 0;
#X connect 6 0 10 0;
#X connect 7 0 15 1;
#X connect 7 1 15 0;
#X connect 8 0 2 0;
#X connect 9 0 7 0;
#X connect 10 0 7 0;
#X connect 11 0 10 1;
#X connect 12 0 13 0;
#X connect 14 0 12 1;
#X connect 15 0 12 0;
#X restore 211 125 pd sub_b;
#X obj 211 272 s b;
#X obj 29 469 s c;
#N canvas 52 207 502 507 sub_c 0;
#X obj 79 76 r b;
#X obj 164 84 r d;
#X obj 93 134 +;
#X obj 106 110 t f b;
#X obj 138 179 +;
#X obj 151 155 t f b;
#X obj 138 208 / 3;
#X obj 128 82 r a;
#X obj 148 339 t f b;
#X obj 220 281 r x;
#X obj 204 323 spigot;
#X obj 271 292 inlet;
#X obj 160 384 spigot;
#X obj 167 424 outlet;
#X obj 323 358 inlet;
#X obj 153 360 metro;
#X connect 0 0 2 0;
#X connect 1 0 5 0;
#X connect 2 0 4 0;
#X connect 3 0 2 1;
#X connect 3 1 2 0;
#X connect 4 0 6 0;
#X connect 5 0 4 1;
#X connect 5 1 4 0;
#X connect 6 0 8 0;
#X connect 7 0 3 0;
#X connect 8 0 15 1;
#X connect 8 1 15 0;
#X connect 9 0 8 0;
#X connect 10 0 8 0;
#X connect 11 0 10 1;
#X connect 12 0 13 0;
#X connect 14 0 12 1;
#X connect 15 0 12 0;
#X restore 29 321 pd sub_c;
#N canvas 771 108 492 483 sub_d 0;
#X obj 79 76 r b;
#X obj 128 82 r c;
#X obj 93 134 +;
#X obj 106 110 t f b;
#X obj 138 179 +;
#X obj 151 155 t f b;
#X obj 138 208 / 3;
#X obj 164 84 r a;
#X obj 157 264 t f b;
#X obj 229 206 r x;
#X obj 213 248 spigot;
#X obj 280 217 inlet;
#X obj 169 309 spigot;
#X obj 176 349 outlet;
#X obj 332 283 inlet;
#X obj 162 285 metro;
#X connect 0 0 2 0;
#X connect 1 0 3 0;
#X connect 2 0 4 0;
#X connect 3 0 2 1;
#X connect 3 1 2 0;
#X connect 4 0 6 0;
#X connect 5 0 4 1;
#X connect 5 1 4 0;
#X connect 6 0 8 0;
#X connect 7 0 5 0;
#X connect 8 0 15 1;
#X connect 8 1 15 0;
#X connect 9 0 8 0;
#X connect 10 0 8 0;
#X connect 11 0 10 1;
#X connect 12 0 13 0;
#X connect 14 0 12 1;
#X connect 15 0 12 0;
#X restore 211 320 pd sub_d;
#X obj 211 468 s d;
#X obj 459 96 tgl 15 0 empty empty empty 17 7 0 10 -262144 -1 -1 1
1;
#X obj 459 114 metro 3000;
#X obj 459 134 f;
#X obj 486 134 + 1;
#X obj 459 155 % 8;
#X obj 459 176 route 0 1 2 3 4 5 6 7;
#X msg 459 208 1;
#X msg 494 208 0;
#X obj 459 235 s p1;
#X msg 531 209 1;
#X msg 566 209 0;
#X msg 603 209 1;
#X msg 638 209 0;
#X msg 672 209 1;
#X msg 707 209 0;
#X obj 531 236 s p2;
#X obj 603 236 s p3;
#X obj 672 236 s p4;
#X obj 74 103 r p1;
#X obj 256 103 r p2;
#X obj 74 299 r p3;
#X obj 256 298 r p4;
#X obj 597 118 s play;
#X obj 29 103 r play;
#X obj 211 103 r play;
#X obj 29 299 r play;
#X obj 211 298 r play;
#X obj 211 147 pd_bpm;
#X obj 707 178 bng 15 250 50 0 empty empty empty 17 7 0 10 -262144
-1 -1;
#X msg 477 93 1;
#X msg 597 81 1;
#X obj 13 22 bng 40 250 50 0 empty empty empty 17 7 0 10 -4160 -1 -1
;
#X obj 533 63 tgl 15 0 empty empty empty 17 7 0 10 -262144 -1 -1 0
1;
#X obj 533 101 s opening;
#X obj 85 126 r opening;
#X obj 268 125 r opening;
#X obj 85 322 r opening;
#X obj 268 320 r opening;
#X obj 533 17 bng 40 250 50 0 empty empty empty 17 7 0 10 -4034 -1
-1;
#X obj 459 39 delay 4100;
#X obj 29 148 pd_bpm;
#X obj 29 343 pd_bpm;
#X obj 211 342 pd_bpm;
#X obj 627 432 f;
#X obj 654 432 + 1;
#X obj 957 429 f;
#X obj 983 429 + 1;
#X obj 790 431 f;
#X obj 816 431 + 1;
#X obj 456 433 f;
#X obj 482 433 + 1;
#X obj 456 474 route 0 1 2 3 4 5 6 7;
#X obj 147 272 s a_bang;
#X obj 456 412 r a_bang;
#X obj 330 272 s b_bang;
#X obj 627 411 r b_bang;
#X obj 148 468 s c_bang;
#X obj 331 468 s d_bang;
#X obj 790 410 r c_bang;
#X obj 957 408 r d_bang;
#X obj 1102 428 f;
#X obj 1128 428 + 1;
#X obj 1102 407 r d_bang;
#X obj 957 450 % 8;
#X obj 1267 428 f;
#X obj 1293 428 + 1;
#X obj 1267 407 r c_bang;
#X obj 1296 578 f;
#X obj 1322 578 + 1;
#X obj 1296 557 r a_bang;
#X obj 456 454 % 10;
#X obj 627 452 % 9;
#X obj 1062 661 noteout 1;
#X obj 627 472 route 0 1 2 3 4 5 6 7 8;
#X obj 1102 470 route 0 1 2 3 4 5 6;
#X obj 957 471 route 0 1 2 3 4 5 6 7;
#X obj 793 472 route 0 1 2 3 4 5 6 7;
#X obj 1267 470 route 0 1 2 3 4 5 6 7 8;
#X obj 1296 620 route 0 1 2 3 4 5 6 7 8;
#X msg 477 514 38;
#X obj 1063 621 makenote 80 1000;
#X obj 776 578 f;
#X obj 802 578 + 1;
#X obj 776 557 r b_bang;
#X obj 776 620 route 0 1 2 3 4 5 6;
#X obj 776 599 % 13;
#X obj 1296 599 % 12;
#X obj 1267 449 % 10;
#X obj 1102 449 % 9;
#X obj 790 452 % 7;
#X msg 642 509 41;
#X msg 803 502 45;
#X msg 951 507 48;
#X msg 1128 505 52;
#X msg 1311 506 55;
#X msg 1315 672 59;
#X msg 795 672 62;
#X msg 572 634 66;
#X msg 475 68 0;
#X obj 533 81 metro 700;
#X floatatom 1058 70 5 0 0 0 - - -;
#X obj 1148 17 * 1000;
#X obj 1109 104 /;
#X floatatom 1104 128 5 0 0 0 - - -;
#X msg 1107 40 10;
#X obj 1021 108 f;
#X obj 1048 108 + 1;
#X floatatom 1002 141 5 0 0 0 - - -;
#X obj 1106 69 t f b;
#X floatatom 1151 128 5 0 0 0 - - -;
#X floatatom 1194 130 5 0 0 0 - - -;
#X obj 1156 104 - 1;
#X obj 1199 106 - 1;
#X obj 1092 171 spigot;
#X obj 1114 150 > 0;
#X obj 1027 172 %;
#X floatatom 1021 196 5 0 0 0 - - -;
#X obj 926 99 spigot;
#X obj 780 101 noteout 1;
#X obj 781 61 makenote 80 1000;
#X msg 777 27 81;
#X connect 1 0 49 0;
#X connect 2 0 31 0;
#X connect 3 0 36 0;
#X connect 6 0 50 0;
#X connect 7 0 51 0;
#X connect 9 0 10 0;
#X connect 10 0 11 0;
#X connect 11 0 12 0;
#X connect 11 0 13 0;
#X connect 12 0 11 1;
#X connect 13 0 14 0;
#X connect 14 0 15 0;
#X connect 14 1 16 0;
#X connect 14 2 18 0;
#X connect 14 3 19 0;
#X connect 14 4 20 0;
#X connect 14 5 21 0;
#X connect 14 6 22 0;
#X connect 14 7 23 0;
#X connect 15 0 17 0;
#X connect 16 0 17 0;
#X connect 18 0 24 0;
#X connect 19 0 24 0;
#X connect 20 0 25 0;
#X connect 21 0 25 0;
#X connect 22 0 26 0;
#X connect 23 0 26 0;
#X connect 27 0 1 1;
#X connect 28 0 3 1;
#X connect 29 0 6 1;
#X connect 30 0 7 1;
#X connect 32 0 1 0;
#X connect 33 0 3 0;
#X connect 34 0 6 0;
#X connect 35 0 7 0;
#X connect 36 0 4 0;
#X connect 36 2 63 0;
#X connect 37 0 21 0;
#X connect 37 0 23 0;
#X connect 37 0 19 0;
#X connect 37 0 16 0;
#X connect 38 0 11 1;
#X connect 38 0 37 0;
#X connect 39 0 2 0;
#X connect 40 0 38 0;
#X connect 40 0 49 0;
#X connect 41 0 108 0;
#X connect 43 0 49 0;
#X connect 44 0 36 0;
#X connect 45 0 50 0;
#X connect 46 0 51 0;
#X connect 47 0 39 0;
#X connect 47 0 41 0;
#X connect 47 0 48 0;
#X connect 47 0 107 0;
#X connect 48 0 41 0;
#X connect 48 0 9 0;
#X connect 48 0 38 0;
#X connect 49 0 0 0;
#X connect 49 0 109 0;
#X connect 49 2 61 0;
#X connect 49 2 113 0;
#X connect 49 2 126 0;
#X connect 50 0 5 0;
#X connect 50 2 65 0;
#X connect 51 0 8 0;
#X connect 51 2 66 0;
#X connect 52 0 53 0;
#X connect 52 0 80 0;
#X connect 53 0 52 1;
#X connect 54 0 55 0;
#X connect 54 0 72 0;
#X connect 55 0 54 1;
#X connect 56 0 57 0;
#X connect 56 0 98 0;
#X connect 57 0 56 1;
#X connect 58 0 59 0;
#X connect 58 0 79 0;
#X connect 59 0 58 1;
#X connect 60 1 88 0;
#X connect 60 5 88 0;
#X connect 62 0 58 0;
#X connect 64 0 52 0;
#X connect 67 0 56 0;
#X connect 68 0 54 0;
#X connect 69 0 70 0;
#X connect 69 0 97 0;
#X connect 70 0 69 1;
#X connect 71 0 69 0;
#X connect 72 0 84 0;
#X connect 73 0 74 0;
#X connect 73 0 96 0;
#X connect 74 0 73 1;
#X connect 75 0 73 0;
#X connect 76 0 77 0;
#X connect 76 0 95 0;
#X connect 77 0 76 1;
#X connect 78 0 76 0;
#X connect 79 0 60 0;
#X connect 80 0 82 0;
#X connect 82 2 99 0;
#X connect 82 8 99 0;
#X connect 83 1 102 0;
#X connect 83 6 102 0;
#X connect 84 3 101 0;
#X connect 84 6 101 0;
#X connect 85 1 100 0;
#X connect 85 7 100 0;
#X connect 86 2 103 0;
#X connect 86 8 103 0;
#X connect 87 1 104 0;
#X connect 87 8 104 0;
#X connect 88 0 89 0;
#X connect 89 0 81 0;
#X connect 89 1 81 1;
#X connect 90 0 91 0;
#X connect 90 0 94 0;
#X connect 91 0 90 1;
#X connect 92 0 90 0;
#X connect 93 1 105 0;
#X connect 94 0 93 0;
#X connect 95 0 87 0;
#X connect 96 0 86 0;
#X connect 97 0 83 0;
#X connect 98 0 85 0;
#X connect 99 0 89 0;
#X connect 100 0 89 0;
#X connect 101 0 89 0;
#X connect 102 0 89 0;
#X connect 103 0 89 0;
#X connect 104 0 89 0;
#X connect 105 0 89 0;
#X connect 106 0 89 0;
#X connect 107 0 9 0;
#X connect 108 0 42 0;
#X connect 108 0 38 0;
#X connect 109 0 117 0;
#X connect 109 0 126 1;
#X connect 110 0 111 0;
#X connect 111 0 112 0;
#X connect 112 0 120 0;
#X connect 112 0 122 0;
#X connect 112 0 123 0;
#X connect 113 0 110 0;
#X connect 114 0 115 0;
#X connect 114 0 116 0;
#X connect 115 0 114 1;
#X connect 116 0 124 0;
#X connect 117 0 111 1;
#X connect 117 1 111 0;
#X connect 118 0 121 0;
#X connect 120 0 118 0;
#X connect 121 0 119 0;
#X connect 122 0 124 1;
#X connect 123 0 122 1;
#X connect 124 0 125 0;
#X connect 126 0 114 0;
#X connect 128 0 127 0;
#X connect 128 1 127 1;
#X connect 129 0 128 0;
